<?xml version="1.0" encoding="UTF-8"?>
<svg width="40px" height="40px" viewBox="0 0 40 40" version="1.1" xmlns="http://www.w3.org/2000/svg" xmlns:xlink="http://www.w3.org/1999/xlink">
    <!-- Generator: Sketch 56.2 (81672) - https://sketch.com -->
    <title>logo white</title>
    <desc>Created with Sketch.</desc>
    <g id="Page-1" stroke="none" stroke-width="1" fill="none" fill-rule="evenodd">
        <g id="VD--Submissions-(-grouped-)" transform="translate(-15.000000, -15.000000)" fill-rule="nonzero">
            <g id="logo-white" transform="translate(15.000000, 15.000000)">
                <path d="M34.3147889,14.4112981 L33.1017454,14.4112981 L33.886528,13.6286894 C36.0266314,11.4897866 36.0276047,8.02096669 33.8887019,5.88086329 C31.7497991,3.74075988 28.2809793,3.73978659 26.1408758,5.87868937 L25.3300063,6.68955894 L25.3300063,5.58738502 C25.3695108,3.60456859 24.3342935,1.75522856 22.6234057,0.752240812 C20.9125179,-0.250746937 18.7931469,-0.250746937 17.082259,0.752240812 C15.3713712,1.75522856 14.3361539,3.60456859 14.3756585,5.58738502 L14.3756585,6.71129807 L13.5452237,5.87868937 C11.4051203,3.73918628 7.93581372,3.73967292 5.79631063,5.87977633 C3.65680753,8.01987973 3.65729418,11.4891863 5.79739758,13.6286894 L6.58652802,14.4112981 L5.36913671,14.4112981 C2.38669972,14.4707185 0,16.9054431 0,19.888472 C0,22.8715008 2.38669972,25.3062255 5.36913671,25.3656459 L6.50609324,25.3656459 L5.63652802,26.2352111 C3.49762523,28.3741139 3.49762523,31.8419605 5.63652802,33.9808633 C7.77543081,36.1197661 11.2432774,36.1197661 13.3821802,33.9808633 L14.2517454,33.1112981 L14.2517454,34.3526024 C14.2517455,37.3781623 16.7044464,39.8308631 19.7300063,39.8308631 C22.7555661,39.8308631 25.2082671,37.3781623 25.2082671,34.3526024 L25.2082671,32.8482546 L26.3430498,33.9830372 C28.4819525,36.1213397 31.9493125,36.120853 34.087615,33.9819502 C36.2259175,31.8430475 36.2254308,28.3756875 34.086528,26.237385 L33.2169628,25.3678198 L34.3039193,25.3678198 C36.2867358,25.4073243 38.1360758,24.3721071 39.1390635,22.6612192 C40.1420513,20.9503314 40.1420513,18.8309604 39.1390635,17.1200726 C38.1360758,15.4091847 36.2867358,14.3739675 34.3039193,14.413472 L34.3147889,14.4112981 Z M36.1582671,21.7439068 C35.6672089,22.2367395 34.9996344,22.5130042 34.3039193,22.5112981 L29.7387019,22.5112981 C29.5976719,22.5124866 29.457651,22.5352125 29.3234845,22.5786894 C29.0865627,22.6418972 28.8700912,22.7654882 28.6952237,22.937385 C28.4336126,23.2027906 28.2942131,23.5650719 28.3104411,23.937385 L28.3104411,24.013472 C28.3288602,24.364098 28.4750156,24.6958475 28.7213106,24.9460807 C28.736528,24.9612981 28.7539193,24.9699937 28.7669628,24.9852111 L32.0604411,28.2460807 C32.9634095,29.284406 32.9090909,30.8443757 31.9360874,31.8173792 C30.9630839,32.7903827 29.4031142,32.8447013 28.3647889,31.9417329 L25.1278324,28.7091242 C24.7773169,28.3877729 24.3162946,28.2141108 23.8408758,28.2243415 L23.6256585,28.2243415 C23.5521477,28.2329919 23.4794503,28.2475314 23.4082671,28.2678198 L23.3408758,28.2895589 C23.2731984,28.3099454 23.2076707,28.3368846 23.1452237,28.3699937 L23.0734845,28.4091242 C22.6348683,28.6618401 22.3640138,29.129002 22.362615,29.6352111 L22.362615,34.3482546 C22.3901022,35.302521 21.8967076,36.1963018 21.0745658,36.6815468 C20.252424,37.1667917 19.2315016,37.1667917 18.4093598,36.6815468 C17.587218,36.1963018 17.0938234,35.302521 17.1213106,34.3482546 L17.1213106,29.7721676 C17.1016232,29.1855174 16.7405979,28.6646157 16.1981895,28.4402517 C15.6557812,28.2158876 15.0322748,28.3295435 14.6039193,28.7308633 L11.362615,31.963472 C10.3242896,32.8664404 8.76431992,32.8121218 7.79131645,31.8391183 C6.81831298,30.8661149 6.76399438,29.3061452 7.6669628,28.2678198 L10.9756585,24.9569502 C11.5320317,24.398719 11.5320317,23.4956163 10.9756585,22.937385 C10.7071873,22.6673389 10.3412191,22.5168766 9.96044106,22.5199937 L5.36913671,22.5199937 C3.93086802,22.5140381 2.7663967,21.3495668 2.76038301,19.9112981 C2.7558133,19.2148119 3.02806101,18.5450153 3.51728964,18.0492636 C4.00651826,17.553512 4.67265037,17.272417 5.36913671,17.2678198 L9.94739758,17.2678198 C9.97924592,17.2699543 10.0112014,17.2699543 10.0430498,17.2678198 C10.4219824,17.2690986 10.7855007,17.1178937 11.0517454,16.8482546 C11.1140596,16.7865359 11.1701286,16.7188162 11.2191367,16.6460807 L11.2343541,16.6286894 C11.2452237,16.613472 11.2495715,16.5917329 11.262615,16.5765155 C11.6375975,15.9790955 11.5120939,15.196325 10.9691367,14.7460807 L7.83000628,11.6047763 C6.92703786,10.566451 6.98135645,9.00648127 7.95435992,8.0334778 C8.9273634,7.06047433 10.4873331,7.00615573 11.5256585,7.90912416 L14.786528,11.1699937 L14.7995715,11.1830372 L14.8321802,11.213472 C15.2815231,11.6585579 15.9705978,11.7539101 16.5239209,11.4475703 C17.077244,11.1412306 17.3621882,10.5066261 17.2234845,9.88955894 L17.2234845,5.58738502 C17.1959973,4.63311865 17.6893919,3.7393378 18.5115337,3.25409284 C19.3336755,2.76884789 20.3545979,2.76884789 21.1767397,3.25409284 C21.9988816,3.7393378 22.4922761,4.63311865 22.4647889,5.58738502 L22.4647889,9.80477633 C22.3193923,10.3037656 22.4596601,10.842294 22.8300063,11.2069502 C23.1484901,11.5658872 23.6265471,11.7399495 24.1012566,11.669817 C24.5759661,11.5996845 24.9832678,11.2948213 25.1843541,10.8591242 L28.1517454,7.89173285 C28.8119101,7.23156817 29.7741211,6.97374452 30.6759228,7.21538156 C31.5777245,7.4570186 32.2821118,8.16140593 32.5237489,9.06320765 C32.7653859,9.96500937 32.5075623,10.9272203 31.8473976,11.587385 L28.7169628,14.7591242 C28.3938252,15.0274822 28.2072995,15.4260413 28.2082671,15.8460807 C28.2097106,16.1120943 28.2849683,16.3724857 28.4256585,16.5982546 C28.4256585,16.6112981 28.4408758,16.6286894 28.4495715,16.6439068 L28.4756585,16.6743415 C28.5209455,16.7421726 28.5726312,16.8055058 28.6300063,16.863472 C28.897611,17.1324134 29.2614795,17.2834384 29.6408758,17.2830372 C29.6734496,17.2851723 29.7061282,17.2851723 29.7387019,17.2830372 L34.3039193,17.2830372 C35.3636688,17.2835124 36.3189154,17.9219404 36.7246866,18.900929 C37.1304579,19.8799177 36.906946,21.0069176 36.1582671,21.7569502 L36.1582671,21.7439068 Z" id="Shape" fill="#FFFFFF"></path>
                <path d="M30.412615,18.5112981 L27.1082671,18.5112981 C27.0728333,18.5145267 27.0371793,18.5145267 27.0017454,18.5112981 C26.566392,18.5124752 26.1488471,18.3385634 25.8430498,18.0286894 C25.7775214,17.9614573 25.7178824,17.8887268 25.6647889,17.8112981 L25.6300063,17.763472 C25.6163507,17.7452041 25.6046901,17.7255267 25.5952237,17.7047763 C25.1829062,17.0288717 25.3189092,16.1540412 25.9169628,15.6352111 L28.2039193,13.3482546 C28.4517666,13.1007377 28.5910336,12.7648344 28.5910336,12.4145589 C28.5910336,12.0642835 28.4517666,11.7283802 28.2039193,11.4808633 C27.6808034,10.9856142 26.8618178,10.9856142 26.3387019,11.4808633 L24.2387019,13.5852111 C23.9859111,14.0453276 23.5267807,14.355332 23.0055302,14.4178476 C22.4842796,14.4803632 21.9648647,14.2877194 21.6104411,13.9004285 C21.2121651,13.5024675 21.0477432,12.9269907 21.1756585,12.3786894 L21.1756585,9.3830372 C21.1756585,8.65426145 20.584869,8.06347198 19.8560932,8.06347198 C19.1273175,8.06347198 18.536528,8.65426145 18.536528,9.3830372 L18.536528,12.463472 C18.6319929,12.9903497 18.4630285,13.5305486 18.0843541,13.9091242 C17.7772688,14.2168433 17.3603911,14.3897714 16.9256585,14.3897714 C16.4909258,14.3897714 16.0740481,14.2168433 15.7669628,13.9091242 L13.3452237,11.4917329 C12.8221078,10.9964837 12.0031222,10.9964837 11.4800063,11.4917329 C10.9674338,12.0086762 10.9674338,12.8421808 11.4800063,13.3591242 L13.7669628,15.6460807 C14.1221659,15.9555594 14.3265896,16.4032313 14.3278324,16.8743415 C14.3257144,17.1769264 14.2407566,17.4731511 14.0821802,17.7308633 C14.0740057,17.7493316 14.0637977,17.7668309 14.0517454,17.7830372 L14.0387019,17.7982546 C13.9804151,17.8840696 13.9149637,17.964793 13.8430498,18.0395589 C13.5360656,18.3474033 13.1191039,18.5202899 12.6843541,18.5199937 C12.6489203,18.5232223 12.6132662,18.5232223 12.5778324,18.5199937 L9.26913671,18.5199937 C8.54255227,18.5223799 7.95413158,19.1108006 7.95174541,19.837385 C7.95174541,20.5606232 8.53291762,21.1496079 9.25609324,21.1591242 L12.612615,21.1591242 C13.2766318,21.1555007 13.8770522,21.5533712 14.1325148,22.1662908 C14.3879774,22.7792104 14.2478638,23.4857327 13.7778324,23.9547763 L11.362615,26.363472 C11.1148995,26.6106174 10.9756864,26.9461609 10.9756864,27.2960807 C10.9756864,27.6460004 11.1148995,27.9815439 11.362615,28.2286894 C11.883679,28.7269692 12.7045944,28.7269692 13.2256585,28.2286894 L15.5887019,25.8656459 C15.8943262,25.5592119 16.3102713,25.3884472 16.7430498,25.3917329 C16.9806832,25.391207 17.2156698,25.4416142 17.4321802,25.5395589 C18.0533034,25.7873282 18.4571403,26.3926511 18.4473976,27.0612981 L18.4473976,30.3917329 C18.4761263,31.0990946 19.057931,31.6577496 19.7658758,31.6577496 C20.4738207,31.6577496 21.0556254,31.0990946 21.0843541,30.3917329 L21.0843541,26.9786894 C21.0873991,26.3978733 21.3963938,25.8616765 21.8973976,25.5678198 L21.986528,25.5221676 C22.0569542,25.4870924 22.1295686,25.4565944 22.2039193,25.4308633 L22.2973976,25.4026024 C22.3784606,25.3799431 22.4614074,25.3646634 22.5452237,25.3569502 L22.6343541,25.3460807 L22.7843541,25.3460807 C23.2835977,25.3433332 23.7650058,25.5315412 24.1300063,25.8721676 L26.4930498,28.2352111 C27.0143982,28.7348784 27.8369188,28.7348784 28.3582671,28.2352111 C28.8717748,27.7195012 28.8717748,26.8857036 28.3582671,26.3699937 L25.9734845,24.0004285 L25.9060932,23.9395589 C25.6272591,23.6533381 25.461928,23.2755488 25.4408758,22.8765155 L25.4408758,22.8156459 C25.4193175,22.3763822 25.5843309,21.9484526 25.8952237,21.637385 C26.0938615,21.4396539 26.3402354,21.2966223 26.6104411,21.2221676 C26.7617738,21.1750151 26.9193243,21.150833 27.0778324,21.1504285 L30.4169628,21.1504285 C30.7680865,21.1510055 31.1050583,21.0120753 31.3537479,20.7642011 C31.6024376,20.5163268 31.7424737,20.1798131 31.7430498,19.8286894 C31.7419018,19.4773847 31.600945,19.1409898 31.3513131,18.8938052 C31.1016812,18.6466207 30.7639139,18.508985 30.412615,18.5112981 L30.412615,18.5112981 Z M19.7604411,24.2656459 C17.3150002,24.2608459 15.3359069,22.2755936 15.3387024,19.8301497 C15.3415038,17.3847057 17.3251356,15.4039882 19.770581,15.4047849 C22.2160264,15.405582 24.1983669,17.3875919 24.1995715,19.8330372 C24.1971771,22.2792584 22.2153564,24.2620514 19.7691367,24.2656459 L19.7604411,24.2656459 Z" id="Shape" fill="#FFFFFF"></path>
                <path d="M23.1234845,19.8330372 C23.1234845,21.6627806 21.6401845,23.1460807 19.8104411,23.1460807 C17.9806977,23.1460807 16.4973976,21.6627806 16.4973976,19.8330372 C16.4973976,18.0032938 17.9806977,16.5199937 19.8104411,16.5199937 C21.6396875,16.5211928 23.1222854,18.0037907 23.1234845,19.8330372" id="Path" fill="#FFC636"></path>
            </g>
        </g>
    </g>
</svg>